# xmcd
#
# Track frame offsets:
# 150
# 12350
# 32516
# 52061
# 69545
# 86420
# 104980
# 122139
# 138902
# 151988
# 170430
# 189070
# 207228
# 223799
# 238323
# 257931
# 272126
# 286862
# 300422
# 320972
#
# Disc length: 4515 seconds
#
#
# Revision: 0
# Processed by: cddbd v1.5.2PL0 Copyright (c) Steve Scherf et al.
# Submitted via: FreeRIP 2.951 
#
DISCID=2d11a114
DTITLE=gian e giovane - peão de vitrine
DYEAR=2006
DGENRE=countre sertaneja
TTITLE0=peao de vitrine
TTITLE1=amigo seu
TTITLE2=convite de casamento
TTITLE3=doi
TTITLE4=ela foi
TTITLE5=faz de conta
TTITLE6=por telefone
TTITLE7=sempre te amei
TTITLE8=gasragen da visinha
TTITLE9=na batida do seu coraçao
TTITLE10=eu quero e mais
TTITLE11=na doçura dos seus beijos
TTITLE12=olhos do amor
TTITLE13=recheio de caramelo
TTITLE14=saudade antiga
TTITLE15=sonhador
TTITLE16=teimosa
TTITLE17=virou amor
TTITLE18=nao vivo dem voçê
TTITLE19=sol e lua
EXTD=
EXTT0=
EXTT1=
EXTT2=
EXTT3=
EXTT4=
EXTT5=
EXTT6=
EXTT7=
EXTT8=
EXTT9=
EXTT10=
EXTT11=
EXTT12=
EXTT13=
EXTT14=
EXTT15=
EXTT16=
EXTT17=
EXTT18=
EXTT19=
PLAYORDER=
